<svg height="512pt" viewBox="0 -41 512.001 512" width="512pt" xmlns="http://www.w3.org/2000/svg"><path d="m72.6875 5.59375c-4.144531 0-7.5 3.355469-7.5 7.5v48.589844h-17.59375v-51.386719c0-4.144531-3.355469-7.5-7.5-7.5s-7.5 3.355469-7.5 7.5v51.386719h-17.59375v-51.386719c0-4.144531-3.355469-7.5-7.5-7.5s-7.5 3.355469-7.5 7.5v97.257813c0 9.324218 5.179688 18.890624 12.589844 23.261718 2.191406 1.289063 5.902344 9.367188 5.902344 13.835938v56.355468c0 46.285157-.410157 91.617188-5.363282 137.378907-3.0625 28.265625-4.753906 52.171875-4.753906 57.890625 0 18.359375 13.933594 32.738281 31.71875 32.738281s31.71875-14.378906 31.71875-32.738281c0-5.71875-1.691406-29.621094-4.753906-57.890625-4.953125-45.765625-5.363282-91.097657-5.363282-137.375v-55.9375c0-5.207031 4.101563-12.730469 8.605469-15.78125 7.289063-4.9375 9.886719-14.464844 9.886719-21.734375v-94.464844c0-4.144531-3.359375-7.5-7.5-7.5zm-32.59375 408.421875c-9.53125 0-16.71875-7.625-16.71875-17.742187 0-4.597657 1.601562-27.976563 4.664062-56.273438 5.035157-46.503906 5.453126-92.28125 5.453126-138.992188v-48.742187l13.199218.199219v48.546875c0 46.703125.417969 92.476562 5.453125 138.988281 3.066407 28.296875 4.667969 51.675781 4.667969 56.273438 0 10.117187-7.1875 17.742187-16.71875 17.742187zm25.09375-306.460937c0 4.039062-1.417969 8.046874-3.296875 9.320312-6.578125 4.449219-11.925781 12.511719-14.121094 20.601562l-15.335937-.226562c-1.886719-7.371094-6.207032-15.804688-12.222656-19.355469-2.824219-1.667969-5.210938-6.402343-5.210938-10.339843v-30.871094h50.1875zm0 0"/><path d="m361.601562 337.140625c-28.332031 23.550781-64.261718 36.519531-101.171874 36.519531-87.328126 0-158.375-71.046875-158.375-158.375 0-36.902344 12.96875-72.828125 36.515624-101.160156 2.648438-3.1875 2.210938-7.914062-.972656-10.5625-3.1875-2.648438-7.917968-2.210938-10.5625.972656-25.78125 31.023438-39.980468 70.355469-39.980468 110.75 0 95.601563 77.773437 173.375 173.375 173.375 40.402343 0 79.738281-14.199218 110.761718-39.984375 3.183594-2.648437 3.621094-7.378906.972656-10.5625-2.648437-3.1875-7.378906-3.621093-10.5625-.972656zm0 0"/><path d="m260.429688 41.910156c-40.144532 0-79.285157 14.039063-110.210938 39.53125-3.195312 2.636719-3.648438 7.363282-1.015625 10.558594 2.636719 3.195312 7.359375 3.652344 10.558594 1.019531 28.246093-23.285156 63.996093-36.105469 100.667969-36.105469 87.328124 0 158.375 71.046876 158.375 158.375 0 36.703126-12.84375 72.480469-36.160157 100.738282-2.636719 3.191406-2.1875 7.921875 1.007813 10.558594 1.398437 1.152343 3.089844 1.714843 4.773437 1.714843 2.160157 0 4.304688-.929687 5.785157-2.726562 25.53125-30.9375 39.59375-70.105469 39.59375-110.285157 0-95.601562-77.777344-173.378906-173.375-173.378906zm0 0"/><path d="m260.429688 355.402344c77.261718 0 140.117187-62.855469 140.117187-140.117188 0-77.257812-62.855469-140.113281-140.117187-140.113281-77.257813 0-140.117188 62.855469-140.117188 140.113281 0 77.261719 62.859375 140.117188 140.117188 140.117188zm0-265.230469c68.992187 0 125.117187 56.125 125.117187 125.113281 0 68.992188-56.125 125.117188-125.117187 125.117188-68.988282 0-125.117188-56.125-125.117188-125.117188 0-68.988281 56.128906-125.113281 125.117188-125.113281zm0 0"/><path d="m512 7.488281c-.003906-2.703125-1.882812-5.191406-4.234375-6.519531s-5.234375-1.289062-7.550781.105469c-32.332032 19.421875-52.414063 54.921875-52.414063 92.640625v115.289062c0 4.894532 2.414063 9.710938 6.796875 13.5625 3.9375 3.464844 9.1875 5.914063 14.472656 6.945313v28.628906c0 26.757813-4.625 67.445313-8.003906 97.15625-2.160156 18.992187-3.863281 33.992187-3.863281 40.570313 0 32.203124 20.730469 34.703124 27.082031 34.703124 13.398438 0 27.714844-9.113281 27.714844-34.734374-.003906-.316407 0-388.347657 0-388.347657zm-49.199219 201.515625v-115.289062c0-27.816406 12.679688-54.226563 33.804688-71.746094.09375 54.996094.171875 132.519531.234375 192.59375l-20.402344.367188c-.277344.003906-.554688.023437-.828125.058593-3.4375.453125-8.210937-1.140625-11.109375-3.6875-1.398438-1.226562-1.699219-2.136719-1.699219-2.296875zm21.484375 206.566406c-2.988281 0-12.082031 0-12.082031-19.703124 0-5.726563 1.746094-21.089844 3.769531-38.878907 3.417969-30.066406 8.097656-71.242187 8.097656-98.851562v-28.34375l12.523438-.222657c.261719 134.09375.40625 166.019532.40625 166.296876 0 8.992187-2.207031 19.703124-12.714844 19.703124zm0 0"/></svg>